<svg width="128" height="128" xmlns="http://www.w3.org/2000/svg">
  <!-- Background -->
  <defs>
    <linearGradient id="grad1" x1="0%" y1="0%" x2="100%" y2="100%">
      <stop offset="0%" style="stop-color:#4CAF50;stop-opacity:1" />
      <stop offset="100%" style="stop-color:#2196F3;stop-opacity:1" />
    </linearGradient>
  </defs>
  
  <rect width="128" height="128" fill="url(#grad1)" rx="24"/>
  
  <!-- Left panel (red - removal) -->
  <rect x="20" y="30" width="38" height="68" fill="#FF5252" opacity="0.9" rx="6"/>
  
  <!-- Right panel (green - addition) -->
  <rect x="70" y="30" width="38" height="68" fill="#69F0AE" opacity="0.9" rx="6"/>
  
  <!-- Comparison arrows -->
  <path d="M 58 58 L 70 58" stroke="white" stroke-width="4" stroke-linecap="round"/>
  <path d="M 58 70 L 70 70" stroke="white" stroke-width="4" stroke-linecap="round"/>
  
  <!-- Arrow heads -->
  <path d="M 67 55 L 70 58 L 67 61" stroke="white" stroke-width="3" fill="none" stroke-linecap="round" stroke-linejoin="round"/>
  <path d="M 61 67 L 58 70 L 61 73" stroke="white" stroke-width="3" fill="none" stroke-linecap="round" stroke-linejoin="round"/>
  
  <!-- Lines inside panels to represent text -->
  <rect x="25" y="40" width="28" height="3" fill="white" opacity="0.7" rx="1"/>
  <rect x="25" y="50" width="22" height="3" fill="white" opacity="0.7" rx="1"/>
  <rect x="25" y="60" width="25" height="3" fill="white" opacity="0.7" rx="1"/>
  <rect x="25" y="70" width="28" height="3" fill="white" opacity="0.7" rx="1"/>
  <rect x="25" y="80" width="20" height="3" fill="white" opacity="0.7" rx="1"/>
  
  <rect x="75" y="40" width="28" height="3" fill="white" opacity="0.7" rx="1"/>
  <rect x="75" y="50" width="25" height="3" fill="white" opacity="0.7" rx="1"/>
  <rect x="75" y="60" width="22" height="3" fill="white" opacity="0.7" rx="1"/>
  <rect x="75" y="70" width="28" height="3" fill="white" opacity="0.7" rx="1"/>
  <rect x="75" y="80" width="23" height="3" fill="white" opacity="0.7" rx="1"/>
</svg>

